<?xml version="1.0" encoding="UTF-8" standalone="no"?>
<!DOCTYPE svg PUBLIC "-//W3C//DTD SVG 1.1//EN"
 "http://www.w3.org/Graphics/SVG/1.1/DTD/svg11.dtd">
<!-- Generated by graphviz version 2.43.0 (0)
 -->
<!-- Title: G Pages: 1 -->
<svg width="1986pt" height="281pt"
 viewBox="0.00 0.00 650.00 92.00" xmlns="http://www.w3.org/2000/svg" xmlns:xlink="http://www.w3.org/1999/xlink">
<g id="graph0" class="graph" transform="scale(3.06 3.06) rotate(0) translate(4 88)">
<title>G</title>
<polygon fill="white" stroke="transparent" points="-4,4 -4,-88 646,-88 646,4 -4,4"/>
<!-- 125562857806480 -->
<g id="node1" class="node">
<title>125562857806480</title>
<polygon fill="none" stroke="black" points="0,-0.5 0,-83.5 208,-83.5 208,-0.5 0,-0.5"/>
<polygon fill="black" stroke="transparent" points="0,-0.5 0,-83.5 208,-83.5 208,-0.5 0,-0.5"/>
<polygon fill="black" stroke="transparent" points="2,-41 2,-81 206,-81 206,-41 2,-41"/>
<polygon fill="none" stroke="black" points="2,-41 2,-81 206,-81 206,-41 2,-41"/>
<text text-anchor="start" x="55" y="-58.2" font-family="Helvetica,sans-Serif" font-weight="bold" font-size="16.00" fill="white">InputLayer</text>
<polygon fill="white" stroke="transparent" points="2,-2 2,-39 204,-39 204,-2 2,-2"/>
<polygon fill="none" stroke="black" points="2,-2 2,-39 204,-39 204,-2 2,-2"/>
<text text-anchor="start" x="13" y="-17.8" font-family="Helvetica,sans-Serif" font-size="14.00">Output shape: </text>
<text text-anchor="start" x="118" y="-17.8" font-family="Helvetica,sans-Serif" font-weight="bold" font-size="14.00">(None, 5)</text>
</g>
<!-- 125562857807392 -->
<g id="node2" class="node">
<title>125562857807392</title>
<polygon fill="none" stroke="black" points="244,-0.5 244,-83.5 642,-83.5 642,-0.5 244,-0.5"/>
<polygon fill="black" stroke="transparent" points="244,-0.5 244,-83.5 642,-83.5 642,-0.5 244,-0.5"/>
<polygon fill="black" stroke="transparent" points="246,-41 246,-81 640,-81 640,-41 246,-41"/>
<polygon fill="none" stroke="black" points="246,-41 246,-81 640,-81 640,-41 246,-41"/>
<text text-anchor="start" x="380" y="-58.2" font-family="Helvetica,sans-Serif" font-weight="bold" font-size="16.00" fill="white">Normalization</text>
<polygon fill="white" stroke="transparent" points="246,-2 246,-39 436,-39 436,-2 246,-2"/>
<polygon fill="none" stroke="black" points="246,-2 246,-39 436,-39 436,-2 246,-2"/>
<text text-anchor="start" x="257" y="-17.8" font-family="Helvetica,sans-Serif" font-size="14.00">Input shape: </text>
<text text-anchor="start" x="350" y="-17.8" font-family="Helvetica,sans-Serif" font-weight="bold" font-size="14.00">(None, 5)</text>
<polygon fill="white" stroke="transparent" points="438,-2 438,-39 640,-39 640,-2 438,-2"/>
<polygon fill="none" stroke="black" points="438,-2 438,-39 640,-39 640,-2 438,-2"/>
<text text-anchor="start" x="449" y="-17.8" font-family="Helvetica,sans-Serif" font-size="14.00">Output shape: </text>
<text text-anchor="start" x="554" y="-17.8" font-family="Helvetica,sans-Serif" font-weight="bold" font-size="14.00">(None, 5)</text>
</g>
<!-- 125562857806480&#45;&gt;125562857807392 -->
<g id="edge1" class="edge">
<title>125562857806480&#45;&gt;125562857807392</title>
<path fill="none" stroke="black" stroke-width="2" d="M208.01,-42C208.01,-42 233.93,-42 233.93,-42"/>
<polygon fill="black" stroke="black" stroke-width="2" points="233.93,-45.5 243.93,-42 233.93,-38.5 233.93,-45.5"/>
</g>
</g>
</svg>
